<svg xmlns="http://www.w3.org/2000/svg" viewBox="0 0 800 1000" width="800" height="1000" role="img" aria-label="VOLA campaign image: denim column dress">
  <title>VOLA campaign image: denim column dress</title>
  <defs>
    <linearGradient id="ground" x1="0.1" y1="0" x2="0.7" y2="1">
      <stop offset="0" stop-color="#1C2942"/>
      <stop offset="1" stop-color="#0D1421"/>
    </linearGradient>
    <linearGradient id="key" x1="0.05" y1="0" x2="0.85" y2="0.9">
      <stop offset="0" stop-color="#ffffff" stop-opacity="0.20"/>
      <stop offset="0.42" stop-color="#ffffff" stop-opacity="0.05"/>
      <stop offset="1" stop-color="#000000" stop-opacity="0.22"/>
    </linearGradient>
    <pattern id="twill" width="7" height="7" patternUnits="userSpaceOnUse" patternTransform="rotate(-26)">
      <path d="M0 0v7" stroke="#ffffff" stroke-opacity="0.07" stroke-width="2.2"/>
      <path d="M3.5 0v7" stroke="#000000" stroke-opacity="0.07" stroke-width="1.8"/>
    </pattern>
    <radialGradient id="vig" cx="0.44" cy="0.36" r="0.82">
      <stop offset="0.5" stop-color="#000000" stop-opacity="0"/>
      <stop offset="1" stop-color="#000000" stop-opacity="0.42"/>
    </radialGradient>
    <clipPath id="frame"><rect width="800" height="1000"/></clipPath>
  </defs>

  <rect width="800" height="1000" fill="url(#ground)"/>
  <g clip-path="url(#frame)">
    <path d="M-90.0 0 C-44.7 447.3 -17.5 658.7 -67.4 1000 L43.3 1000 C-3.2 658.7 22.2 447.3 64.5 0 Z" fill="#273958"/>
    <path d="M64.5 0 C22.2 447.3 -3.2 658.7 43.3 1000" fill="none" stroke="#0D1421" stroke-opacity="0.5" stroke-width="2.7"/>
    <path d="M64.5 0 C89.9 455.9 105.2 545.4 77.2 1000 L268.6 1000 C302.9 545.4 284.2 455.9 253.1 0 Z" fill="#304469"/>
    <path d="M253.1 0 C284.2 455.9 302.9 545.4 268.6 1000" fill="none" stroke="#0D1421" stroke-opacity="0.5" stroke-width="2.5"/>
    <path d="M253.1 0 C284.5 455.6 303.4 506.6 268.8 1000 L436.4 1000 C461.2 506.6 447.7 455.6 425.2 0 Z" fill="#253554"/>
    <path d="M425.2 0 C447.7 455.6 461.2 506.6 436.4 1000" fill="none" stroke="#0D1421" stroke-opacity="0.5" stroke-width="1.6"/>
    <path d="M425.2 0 C458.9 468.4 479.2 512.9 442.0 1000 L603.0 1000 C579.9 512.9 592.5 468.4 613.5 0 Z" fill="#1a263e"/>
    <path d="M613.5 0 C592.5 468.4 579.9 512.9 603.0 1000" fill="none" stroke="#0D1421" stroke-opacity="0.5" stroke-width="1.9"/>
    <path d="M613.5 0 C629.0 426.0 638.3 488.6 621.2 1000 L755.8 1000 C741.5 488.6 749.3 426.0 762.3 0 Z" fill="#22314e"/>
    <path d="M762.3 0 C749.3 426.0 741.5 488.6 755.8 1000" fill="none" stroke="#0D1421" stroke-opacity="0.5" stroke-width="2.6"/>
    <path d="M762.3 0 C788.5 504.8 804.2 657.6 775.4 1000 L869.8 1000 C825.5 657.6 849.7 504.8 890.0 0 Z" fill="#162136"/>
    <path d="M890.0 0 C849.7 504.8 825.5 657.6 869.8 1000" fill="none" stroke="#0D1421" stroke-opacity="0.5" stroke-width="1.6"/>
  </g>
  <rect width="800" height="1000" fill="url(#twill)"/>
  <rect width="800" height="1000" fill="url(#key)"/>
  <rect width="800" height="1000" fill="url(#vig)"/>

  <!-- selvedge edge -->
  <rect x="354.8" y="0" width="16" height="1000" fill="#F3EEE3" fill-opacity="0.1"/>
  <rect x="360.8" y="0" width="2.5" height="1000" fill="#C8A24A" fill-opacity="0.8"/>

  <text x="400" y="948" text-anchor="middle" font-family="Georgia, 'Times New Roman', serif"
        font-size="24" letter-spacing="15" fill="#ffffff" fill-opacity="0.42">VOL&#192;</text>
</svg>
