<svg xmlns="http://www.w3.org/2000/svg" viewBox="0 0 800 1000" width="800" height="1000" role="img" aria-label="VOLA campaign image: corset in stone wash">
  <title>VOLA campaign image: corset in stone wash</title>
  <defs>
    <linearGradient id="ground" x1="0.1" y1="0" x2="0.7" y2="1">
      <stop offset="0" stop-color="#A69D8E"/>
      <stop offset="1" stop-color="#7C7466"/>
    </linearGradient>
    <linearGradient id="key" x1="0.05" y1="0" x2="0.85" y2="0.9">
      <stop offset="0" stop-color="#ffffff" stop-opacity="0.20"/>
      <stop offset="0.42" stop-color="#ffffff" stop-opacity="0.05"/>
      <stop offset="1" stop-color="#000000" stop-opacity="0.22"/>
    </linearGradient>
    <pattern id="twill" width="7" height="7" patternUnits="userSpaceOnUse" patternTransform="rotate(-26)">
      <path d="M0 0v7" stroke="#ffffff" stroke-opacity="0.07" stroke-width="2.2"/>
      <path d="M3.5 0v7" stroke="#000000" stroke-opacity="0.07" stroke-width="1.8"/>
    </pattern>
    <radialGradient id="vig" cx="0.44" cy="0.36" r="0.82">
      <stop offset="0.5" stop-color="#000000" stop-opacity="0"/>
      <stop offset="1" stop-color="#000000" stop-opacity="0.42"/>
    </radialGradient>
    <clipPath id="frame"><rect width="800" height="1000"/></clipPath>
  </defs>

  <rect width="800" height="1000" fill="url(#ground)"/>
  <g clip-path="url(#frame)">
    <path d="M-90.0 0 C-98.6 491.2 -103.7 680.4 -94.3 1000 L13.3 1000 C-11.9 680.4 1.8 491.2 24.7 0 Z" fill="#a89f90"/>
    <path d="M24.7 0 C1.8 491.2 -11.9 680.4 13.3 1000" fill="none" stroke="#7C7466" stroke-opacity="0.5" stroke-width="2.5"/>
    <path d="M24.7 0 C25.7 500.2 26.3 691.6 25.2 1000 L136.3 1000 C95.6 691.6 117.8 500.2 154.8 0 Z" fill="#bdb5a8"/>
    <path d="M154.8 0 C117.8 500.2 95.6 691.6 136.3 1000" fill="none" stroke="#7C7466" stroke-opacity="0.5" stroke-width="2.6"/>
    <path d="M154.8 0 C168.9 394.6 177.4 674.4 161.9 1000 L280.7 1000 C301.0 674.4 289.9 394.6 271.4 0 Z" fill="#a89f90"/>
    <path d="M271.4 0 C289.9 394.6 301.0 674.4 280.7 1000" fill="none" stroke="#7C7466" stroke-opacity="0.5" stroke-width="3.3"/>
    <path d="M271.4 0 C285.4 378.0 293.8 583.7 278.4 1000 L398.3 1000 C422.5 583.7 409.3 378.0 387.4 0 Z" fill="#aea697"/>
    <path d="M387.4 0 C409.3 378.0 422.5 583.7 398.3 1000" fill="none" stroke="#7C7466" stroke-opacity="0.5" stroke-width="2.2"/>
    <path d="M387.4 0 C352.5 431.9 331.6 634.4 369.9 1000 L491.9 1000 C447.2 634.4 471.5 431.9 512.2 0 Z" fill="#bdb6a8"/>
    <path d="M512.2 0 C471.5 431.9 447.2 634.4 491.9 1000" fill="none" stroke="#7C7466" stroke-opacity="0.5" stroke-width="1.7"/>
    <path d="M512.2 0 C524.7 503.4 532.2 608.4 518.4 1000 L665.3 1000 C699.9 608.4 681.0 503.4 649.6 0 Z" fill="#a49b8c"/>
    <path d="M649.6 0 C681.0 503.4 699.9 608.4 665.3 1000" fill="none" stroke="#7C7466" stroke-opacity="0.5" stroke-width="1.3"/>
    <path d="M649.6 0 C632.3 376.6 621.9 633.2 640.9 1000 L734.6 1000 C716.7 633.2 726.5 376.6 742.7 0 Z" fill="#958d7e"/>
    <path d="M742.7 0 C726.5 376.6 716.7 633.2 734.6 1000" fill="none" stroke="#7C7466" stroke-opacity="0.5" stroke-width="3.2"/>
    <path d="M742.7 0 C749.1 448.5 753.0 578.9 745.9 1000 L890.1 1000 C890.2 578.9 890.1 448.5 890.0 0 Z" fill="#9d9485"/>
    <path d="M890.0 0 C890.1 448.5 890.2 578.9 890.1 1000" fill="none" stroke="#7C7466" stroke-opacity="0.5" stroke-width="3.3"/>
  </g>
  <rect width="800" height="1000" fill="url(#twill)"/>
  <rect width="800" height="1000" fill="url(#key)"/>
  <rect width="800" height="1000" fill="url(#vig)"/>

  <!-- selvedge edge -->
  <rect x="689.8" y="0" width="16" height="1000" fill="#F3EEE3" fill-opacity="0.1"/>
  <rect x="695.8" y="0" width="2.5" height="1000" fill="#F5F1E9" fill-opacity="0.8"/>

  <text x="400" y="948" text-anchor="middle" font-family="Georgia, 'Times New Roman', serif"
        font-size="24" letter-spacing="15" fill="#ffffff" fill-opacity="0.42">VOL&#192;</text>
</svg>
