<svg xmlns="http://www.w3.org/2000/svg" viewBox="0 0 800 1000" width="800" height="1000" role="img" aria-label="Sculpted raw-denim trouser by VOLA, deep indigo selvedge">
  <title>Sculpted raw-denim trouser by VOLA, deep indigo selvedge</title>
  <defs>
    <linearGradient id="ground" x1="0.1" y1="0" x2="0.7" y2="1">
      <stop offset="0" stop-color="#1C2942"/>
      <stop offset="1" stop-color="#0D1421"/>
    </linearGradient>
    <linearGradient id="key" x1="0.05" y1="0" x2="0.85" y2="0.9">
      <stop offset="0" stop-color="#ffffff" stop-opacity="0.20"/>
      <stop offset="0.42" stop-color="#ffffff" stop-opacity="0.05"/>
      <stop offset="1" stop-color="#000000" stop-opacity="0.22"/>
    </linearGradient>
    <pattern id="twill" width="7" height="7" patternUnits="userSpaceOnUse" patternTransform="rotate(-26)">
      <path d="M0 0v7" stroke="#ffffff" stroke-opacity="0.07" stroke-width="2.2"/>
      <path d="M3.5 0v7" stroke="#000000" stroke-opacity="0.07" stroke-width="1.8"/>
    </pattern>
    <radialGradient id="vig" cx="0.44" cy="0.36" r="0.82">
      <stop offset="0.5" stop-color="#000000" stop-opacity="0"/>
      <stop offset="1" stop-color="#000000" stop-opacity="0.42"/>
    </radialGradient>
    <clipPath id="frame"><rect width="800" height="1000"/></clipPath>
  </defs>

  <rect width="800" height="1000" fill="url(#ground)"/>
  <g clip-path="url(#frame)">
    <path d="M-90.0 0 C-78.4 280.3 -71.5 709.5 -84.2 1000 L64.6 1000 C70.4 709.5 67.2 280.3 61.9 0 Z" fill="#233250"/>
    <path d="M61.9 0 C67.2 280.3 70.4 709.5 64.6 1000" fill="none" stroke="#0D1421" stroke-opacity="0.5" stroke-width="2.9"/>
    <path d="M61.9 0 C18.0 316.5 -8.4 598.0 39.9 1000 L148.3 1000 C121.1 598.0 135.9 316.5 160.7 0 Z" fill="#2c4063"/>
    <path d="M160.7 0 C135.9 316.5 121.1 598.0 148.3 1000" fill="none" stroke="#0D1421" stroke-opacity="0.5" stroke-width="3.1"/>
    <path d="M160.7 0 C193.4 388.6 213.1 596.2 177.0 1000 L303.8 1000 C288.3 596.2 296.7 388.6 310.9 0 Z" fill="#212f4b"/>
    <path d="M310.9 0 C296.7 388.6 288.3 596.2 303.8 1000" fill="none" stroke="#0D1421" stroke-opacity="0.5" stroke-width="1.8"/>
    <path d="M310.9 0 C284.7 480.5 269.0 552.0 297.8 1000 L420.7 1000 C425.1 552.0 422.7 480.5 418.6 0 Z" fill="#263756"/>
    <path d="M418.6 0 C422.7 480.5 425.1 552.0 420.7 1000" fill="none" stroke="#0D1421" stroke-opacity="0.5" stroke-width="2.2"/>
    <path d="M418.6 0 C385.2 483.1 365.1 720.9 401.9 1000 L561.5 1000 C553.2 720.9 557.8 483.1 565.3 0 Z" fill="#2a3d5f"/>
    <path d="M565.3 0 C557.8 483.1 553.2 720.9 561.5 1000" fill="none" stroke="#0D1421" stroke-opacity="0.5" stroke-width="1.3"/>
    <path d="M565.3 0 C521.4 364.7 495.1 629.8 543.4 1000 L667.4 1000 C667.3 629.8 667.3 364.7 667.4 0 Z" fill="#1b2841"/>
    <path d="M667.4 0 C667.3 364.7 667.3 629.8 667.4 1000" fill="none" stroke="#0D1421" stroke-opacity="0.5" stroke-width="1.8"/>
    <path d="M667.4 0 C686.2 458.9 697.4 684.3 676.8 1000 L760.4 1000 C761.7 684.3 761.0 458.9 759.9 0 Z" fill="#152033"/>
    <path d="M759.9 0 C761.0 458.9 761.7 684.3 760.4 1000" fill="none" stroke="#0D1421" stroke-opacity="0.5" stroke-width="1.4"/>
    <path d="M759.9 0 C720.2 348.5 696.3 511.2 740.0 1000 L891.8 1000 C895.8 511.2 893.6 348.5 890.0 0 Z" fill="#162135"/>
    <path d="M890.0 0 C893.6 348.5 895.8 511.2 891.8 1000" fill="none" stroke="#0D1421" stroke-opacity="0.5" stroke-width="1.9"/>
  </g>
  <rect width="800" height="1000" fill="url(#twill)"/>
  <rect width="800" height="1000" fill="url(#key)"/>
  <rect width="800" height="1000" fill="url(#vig)"/>

  <!-- selvedge edge -->
  <rect x="208.0" y="0" width="16" height="1000" fill="#F3EEE3" fill-opacity="0.1"/>
  <rect x="214.0" y="0" width="2.5" height="1000" fill="#C8A24A" fill-opacity="0.8"/>

  <text x="400" y="948" text-anchor="middle" font-family="Georgia, 'Times New Roman', serif"
        font-size="24" letter-spacing="15" fill="#ffffff" fill-opacity="0.42">VOL&#192;</text>
</svg>
